<svg xmlns="http://www.w3.org/2000/svg" width="100%" viewBox="0 0 191 193" fill="none" class="svg">
              <g filter="url(#filter0_d_626_233)">
                <path d="M92.7911 23.7958C97.2496 20.0497 103.876 20.5147 107.767 24.8467L114.639 32.4958C116.864 34.973 120.109 36.2846 123.43 36.0502L133.687 35.3263C139.496 34.9164 144.583 39.1872 145.186 44.9793L146.249 55.2066C146.593 58.5188 148.447 61.4867 151.272 63.2496L159.995 68.6928C164.936 71.7756 166.541 78.221 163.624 83.2608L158.473 92.1599C156.804 95.0419 156.559 98.5325 157.809 101.619L161.667 111.15C163.852 116.548 161.362 122.706 156.039 125.069L146.641 129.241C143.598 130.592 141.348 133.272 140.544 136.503L138.063 146.482C136.658 152.133 131.024 155.652 125.329 154.434L115.274 152.285C112.017 151.589 108.622 152.435 106.072 154.577L98.1999 161.192C93.7414 164.938 87.1153 164.473 83.2237 160.141L76.352 152.492C74.1266 150.014 70.8825 148.703 67.5607 148.937L57.3038 149.661C51.4949 150.071 46.4076 145.8 45.8055 140.008L44.7422 129.781C44.3979 126.469 42.5443 123.501 39.7191 121.738L30.9956 116.295C26.0552 113.212 24.4498 106.766 27.3672 101.727L32.5184 92.8275C34.1867 89.9455 34.4317 86.4549 33.1822 83.3681L29.3242 73.8369C27.1393 68.439 29.629 62.2809 34.9516 59.9184L44.3498 55.7467C47.3934 54.3957 49.6433 51.7157 50.4469 48.4841L52.928 38.5055C54.3332 32.8542 59.967 29.3357 65.6617 30.5529L75.717 32.7021C78.9735 33.3981 82.369 32.5524 84.9186 30.4102L92.7911 23.7958Z" fill="#5B9CFF" svg-name="rocket" style="translate: none; rotate: none; scale: none; transform-origin: 0px 0px;" data-svg-origin="95.49550247192383 92.49386024475098" transform="matrix(-0.26366,-0.96462,0.96462,-0.26366,31.45242,208.99766)"></path>
                <circle cx="95.4908" cy="92.494" r="54.9747" transform="rotate(19.6094 95.4908 92.494)" fill="white"></circle>
                <path d="M94.0028 105.584C96.9021 107.136 97.6871 112.281 97.2131 115.072C97.1869 115.226 97.3578 115.343 97.4898 115.259C104.418 110.876 105.257 102.59 105.123 96.5758C105.069 94.1684 104.269 91.8492 103.812 89.485C102.801 84.2567 105.437 80.7514 106.66 77.7279C107.769 74.9886 106.747 72.5326 106.167 71.4868C105.995 71.1777 105.602 71.0622 105.296 71.2383C90.9836 77.9008 80.3414 94.2563 79.8135 97.6797C78.7377 100.059 84.2522 108.712 92.4894 108.818C99.853 108.913 112.742 85.7535 115.886 66.8464C115.945 66.494 115.644 66.1992 115.295 66.2746C113.899 66.576 110.676 67.4485 107.928 69.5067M93.3206 102.553C97.5351 97.0326 101.077 91.8789 96.4221 89.8939C89.2584 86.839 86.4966 99.5286 94.798 99.0048C103.099 98.4811 102.701 87.9941 94.3178 86.8018C91.2469 86.0645 83.0929 84.6458 77.6693 89.9769C76.4207 91.1274 73.796 95.2535 73.3753 99.0853C73.3606 99.2194 73.4968 99.3167 73.621 99.2641C75.5982 98.4261 79.4129 97.4375 81.3327 99.5168C80.2489 99.8632 78.6484 102.198 77.4824 104.774C77.4102 104.934 77.5963 105.095 77.7509 105.012C78.4814 104.622 79.4734 104.273 79.8123 104.865C79.8326 104.9 79.8223 104.944 79.7902 104.969C78.7447 105.795 76.6113 107.962 75.8636 110.348C75.8355 110.437 75.949 110.497 76.0116 110.427C76.6104 109.754 77.5175 108.894 77.7393 109.301C78.0596 109.889 75.043 112.778 76.7099 117.706C78.4145 117.726 81.976 116.874 84.2904 114.188C84.3975 114.064 84.5942 114.13 84.5847 114.294C84.5548 114.813 84.4395 115.676 84.0301 116.464C83.9845 116.552 84.0895 116.649 84.1645 116.584C85.347 115.565 87.1492 113.347 87.7023 111.939C87.7917 111.711 88.0403 111.631 88.1586 111.845C88.4616 112.394 88.7413 113.419 88.5038 114.47C88.3377 115.206 93.0883 110.239 92.5887 107.338C92.1889 105.017 92.3384 103.84 93.3206 102.553Z" stroke="#2D6FD2" stroke-width="1.4041" stroke-miterlimit="10" stroke-linecap="round"></path>
                <circle cx="95.4913" cy="92.4912" r="50.9049" transform="rotate(19.6094 95.4913 92.4912)" stroke="#5B9CFF" stroke-width="0.907373"></circle>
              </g>
              <defs>
                <filter id="filter0_d_626_233" x="0.914062" y="0.265625" width="189.164" height="192.457" filterUnits="userSpaceOnUse" color-interpolation-filters="sRGB">
                  <feFlood flood-opacity="0" result="BackgroundImageFix"></feFlood>
                  <feColorMatrix in="SourceAlpha" type="matrix" values="0 0 0 0 0 0 0 0 0 0 0 0 0 0 0 0 0 0 127 0" result="hardAlpha"></feColorMatrix>
                  <feOffset dy="4"></feOffset>
                  <feGaussianBlur stdDeviation="12.5"></feGaussianBlur>
                  <feComposite in2="hardAlpha" operator="out"></feComposite>
                  <feColorMatrix type="matrix" values="0 0 0 0 0 0 0 0 0 0 0 0 0 0 0 0 0 0 0.25 0"></feColorMatrix>
                  <feBlend mode="normal" in2="BackgroundImageFix" result="effect1_dropShadow_626_233"></feBlend>
                  <feBlend mode="normal" in="SourceGraphic" in2="effect1_dropShadow_626_233" result="shape"></feBlend>
                </filter>
              </defs>
            </svg>